<svg id="visual" viewBox="0 0 900 600" width="900" height="600" xmlns="http://www.w3.org/2000/svg" xmlns:xlink="http://www.w3.org/1999/xlink" version="1.1"><rect x="0" y="0" width="900" height="600" fill="#FFFFFF"></rect><defs><linearGradient id="grad1_0" x1="33.3%" y1="0%" x2="100%" y2="100%"><stop offset="20%" stop-color="#ffffff" stop-opacity="1"></stop><stop offset="80%" stop-color="#ffffff" stop-opacity="1"></stop></linearGradient></defs><defs><linearGradient id="grad2_0" x1="0%" y1="0%" x2="66.7%" y2="100%"><stop offset="20%" stop-color="#ffffff" stop-opacity="1"></stop><stop offset="80%" stop-color="#ffffff" stop-opacity="1"></stop></linearGradient></defs><g transform="translate(900, 0)"><path d="M0 351.5C-30.1 328.7 -60.3 305.8 -97 298.6C-133.8 291.5 -177.2 300 -206.6 284.4C-236 268.8 -251.4 229.2 -270.2 196.3C-289 163.4 -311.1 137.3 -325.3 105.7C-339.4 74.1 -345.5 37 -351.5 0L0 0Z" fill="#5941f7"></path></g><g transform="translate(0, 600)"><path d="M0 -351.5C27.4 -325.6 54.8 -299.6 96.1 -295.8C137.4 -292 192.5 -310.4 206.6 -284.4C220.7 -258.4 193.7 -188 213.6 -155.2C233.4 -122.4 300.2 -127.1 331 -107.5C361.8 -87.9 356.7 -44 351.5 0L0 0Z" fill="#5941f7"></path></g></svg>